HIERARCHY
ROOT HipCenter
{
    OFFSET 0.0 0.0 -0.0
    CHANNELS 6 Xposition Yposition Zposition Zrotation Xrotation Yrotation
    JOINT Spine
    {
        OFFSET 0.0 11.60804271697998 0.0
        CHANNELS 3 Zrotation Xrotation Yrotation
        JOINT ShoulderCenter
        {
            OFFSET 0.0 34.1893310546875 0.0
            CHANNELS 3 Zrotation Xrotation Yrotation
            JOINT LeftShoulder
            {
                OFFSET 21.03016471862793 0.0 0.0
                CHANNELS 3 Zrotation Xrotation Yrotation
                JOINT LeftElbow
                {
                    OFFSET 28.253284454345703 0.0 0.0
                    CHANNELS 3 Zrotation Xrotation Yrotation
                    JOINT LeftWrist
                    {
                        OFFSET 30.587841033935547 0.0 0.0
                        CHANNELS 3 Zrotation Xrotation Yrotation
                        JOINT LeftHand
                        {
                            OFFSET 3.9561049938201904 0.0 0.0
                            CHANNELS 3 Zrotation Xrotation Yrotation
                            End Site
                            {
                                OFFSET 1.582442045211792 0.0 0.0
                            }
                        }
                    }
                }
            }
            JOINT RightShoulder
            {
                OFFSET -21.03016471862793 0.0 0.0
                CHANNELS 3 Zrotation Xrotation Yrotation
                JOINT RightElbow
                {
                    OFFSET -28.253284454345703 0.0 0.0
                    CHANNELS 3 Zrotation Xrotation Yrotation
                    JOINT RightWrist
                    {
                        OFFSET -30.587841033935547 0.0 0.0
                        CHANNELS 3 Zrotation Xrotation Yrotation
                        JOINT RightHand
                        {
                            OFFSET -3.9561049938201904 0.0 0.0
                            CHANNELS 3 Zrotation Xrotation Yrotation
                            End Site
                            {
                                OFFSET -1.582442045211792 0.0 0.0
                            }
                        }
                    }
                }
            }
            End Site
            {
                OFFSET 0.0 13.675732612609863 0.0
            }
        }
    }
    JOINT LeftHip
    {
        OFFSET 16.196035385131836 0.0 0.0
        CHANNELS 3 Zrotation Xrotation Yrotation
        JOINT LeftKnee
        {
            OFFSET 0.0 -39.73896789550781 0.0
            CHANNELS 3 Zrotation Xrotation Yrotation
            JOINT LeftAnkle
            {
                OFFSET 0.0 -45.00599670410156 0.0
                CHANNELS 3 Zrotation Xrotation Yrotation
                JOINT LeftFoot
                {
                    OFFSET 0.0 -10.236822128295898 0.0
                    CHANNELS 3 Zrotation Xrotation Yrotation
                    End Site
                    {
                        OFFSET 0.0 0.0 4.094728469848633
                    }
                }
            }
        }
    }
    JOINT RightHip
    {
        OFFSET -16.196035385131836 0.0 0.0
        CHANNELS 3 Zrotation Xrotation Yrotation
        JOINT RightKnee
        {
            OFFSET 0.0 -39.73896789550781 0.0
            CHANNELS 3 Zrotation Xrotation Yrotation
            JOINT RightAnkle
            {
                OFFSET 0.0 -45.00599670410156 0.0
                CHANNELS 3 Zrotation Xrotation Yrotation
                JOINT RightFoot
                {
                    OFFSET 0.0 -10.236822128295898 0.0
                    CHANNELS 3 Zrotation Xrotation Yrotation
                    End Site
                    {
                        OFFSET 0.0 0.0 4.094728469848633
                    }
                }
            }
        }
    }
}
MOTION
Frames: 4
Frame Time: 0.03333333333333333
-54.5 1.3000000715255737 -92.4000015258789 -1.9749230392872774 -0.49361595003702785 93.8003940776483 0.0036651707804908813 -4.839839412119902 0.08580060464865168 -7.404072296951823e-08 -1.9778633444214515e-07 -4.288693499042998 95.67102048476687 -38.36095254407695 163.0727307096765 -3.895609917453654e-06 -4.914845997522722e-06 93.3689307339769 -179.99999364522853 -69.16472496468639 -126.99631867158878 -3.1805546814635168e-15 -1.9397049161353236e-32 6.98852347001261e-16 -89.73092545075889 -28.104639587256845 -160.57325396313595 2.1914407785813613e-06 -3.755656903178098e-06 -91.39389675492598 179.9999975966432 -75.75217937862433 130.6123506416714 4.7335598970218745e-15 7.951386703658791e-16 -1.8636062586700292e-15 5.65616264746154 -4.865517074959332 -34.307222920477805 -9.332713254870841 20.475996724071706 -15.58106512848292 105.68404519912879 -41.11183633465896 152.3155654503905 -1.5902773407317584e-15 3.1805546814635168e-15 -3.1805546814635168e-15 -4.541397924310254 8.064346896375358 40.1294851020341 0.08540636047808343 -0.22738302047168227 -0.16797991032821957 -83.50916570535817 -28.905819235727627 -140.02166928217082 -6.361109362927033e-15 1.5902773407317582e-15 8.827812596100317e-32
-54.79999923706055 1.4000000953674316 -92.4000015258789 -1.9749225841457432 -0.49361606086349896 93.53586620273927 0.0677579344178114 -4.170267383520527 0.05796840703049545 1.0497149397392441e-07 -1.0937534105165313e-08 -3.5558767449054858 96.68827649724051 -38.422839125735614 164.57815955678637 -1.8421782674890626e-06 -3.571138923974638e-06 94.33821977665687 -179.99999887974877 -69.65621690889813 -125.46503585934103 0.0 0.0 -7.407834878213367e-16 -89.92788852461277 -27.253952889775473 -161.11990667139347 -3.151501082174912e-06 -9.110321678456824e-07 -92.1455052745395 -179.99999926635593 -75.42115080575319 130.80589924914693 -1.3914926731402882e-15 1.9878466759146975e-16 3.4787316828507205e-16 5.5436286002639354 -4.978363662155029 -33.38311166760292 -8.720328657788478 20.43300666323981 -15.925827655343351 105.08635426581495 -41.628919747246485 152.1125604759633 -7.951386703658793e-15 -3.1805546814635176e-15 3.1805546814635176e-15 -4.607769057456208 7.603991385574577 39.61755145096148 0.127940663624622 -0.0021344009455094154 -0.0016351805846634515 -83.00347919514778 -29.861620542965674 -139.63960975671188 0.0 0.0 0.0
-55.099998474121094 1.5 -92.4000015258789 -2.960928858768561 -0.4932499695983845 93.51179767399616 0.19708792051068688 -4.829700013743914 0.059634713888296505 9.013235910676314e-09 9.747646745874922e-08 -3.521065991468567 97.20544858686354 -37.7838483360144 165.9778967907297 1.4533469290118271e-06 -1.5168970472543922e-06 95.06307144496319 179.99999747966325 -72.07829233432247 -127.24408073317879 4.482873583957193e-33 -3.975693351829396e-16 1.2921003393445538e-15 -90.30558804044085 -26.871689383991097 -162.2570097187548 6.0397231472306456e-06 5.094447915928246e-06 -92.9373057455159 -179.99998755541287 -73.771180428594 128.77195296363936 -1.2921003393445536e-15 3.9756933518293955e-16 1.9878466759146977e-16 5.472613446131975 -6.088500282779161 -32.67295175307862 -8.475361585111251 20.27132687552374 -16.037310648316275 104.49926470416646 -41.68625170116772 151.94699738046538 -9.54166404439055e-15 0.0 0.0 -4.521541124828809 6.467621360362426 38.84533266144425 -0.1357677370589695 -0.06805372550194555 -0.053042408016401574 -82.5370317479692 -30.564501527534237 -139.16474186235976 6.3611093629270335e-15 3.1805546814635168e-15 -3.1805546814635168e-15
-55.29999542236328 1.600000023841858 -92.5 -2.9609098302771195 -0.493250004880569 93.51432483687418 0.5436157737959794 -4.682716638373862 0.10892822326462501 -2.8341707751641552e-08 2.1798864914745038e-08 -4.097671329531779 97.749231483515 -36.563600734664966 168.27510354095315 -2.3156831258740662e-06 -2.2275480691462102e-06 95.34469135706416 -179.99999688522232 -71.83508548736333 -124.59337286617601 0.0 0.0 -6.02566023636643e-16 -91.41512546020303 -26.546960365775554 -164.90812192804933 -4.920020649152559e-07 8.884542875597359e-07 -93.1334766612653 -179.9999995617435 -75.3219555902677 131.0877813219151 -6.957463365701442e-16 -7.951386703658791e-16 -2.9817700138720465e-16 5.604053571963746 -6.235150833540059 -32.396375698264684 -8.497646533472642 20.213750159892253 -16.411125005204536 105.32808413972957 -41.99044798510401 153.10169350960396 4.770832022195275e-15 6.3611093629270335e-15 -2.648343778830095e-31 -4.6769733704307965 6.158083160112624 38.423523968690326 0.09481657910265488 -0.014765102022294254 -0.011618969360782891 -82.3679492045985 -30.943966571997166 -138.9629497238265 0.0 3.1805546814635164e-15 0.0
